<mxfile host="app.diagrams.net" agent="Mozilla/5.0 (Macintosh; Intel Mac OS X 10_15_7) AppleWebKit/537.36 (KHTML, like Gecko) Chrome/131.0.0.0 Safari/537.36" version="25.0.3">
  <diagram name="Sayfa -1" id="NzNcI6mUJ2YwDrRMZhSW">
    <mxGraphModel dx="1136" dy="652" grid="1" gridSize="10" guides="1" tooltips="1" connect="1" arrows="1" fold="1" page="1" pageScale="1" pageWidth="827" pageHeight="1169" math="0" shadow="0">
      <root>
        <mxCell id="0" />
        <mxCell id="1" parent="0" />
        <mxCell id="3feMBod0ltPdQuT8gGiK-1" value="&lt;meta charset=&quot;utf-8&quot;&gt;Başlangıç" style="ellipse;whiteSpace=wrap;html=1;" vertex="1" parent="1">
          <mxGeometry x="40" y="30" width="90" height="50" as="geometry" />
        </mxCell>
        <mxCell id="3feMBod0ltPdQuT8gGiK-2" value="Görüntünün okunması ve gri tonlamaya dönüştürülmesi" style="rounded=1;whiteSpace=wrap;html=1;" vertex="1" parent="1">
          <mxGeometry x="190" y="25" width="170" height="60" as="geometry" />
        </mxCell>
        <mxCell id="3feMBod0ltPdQuT8gGiK-3" value="&lt;meta charset=&quot;utf-8&quot;&gt;Görüntünün bulanıklaştırılması" style="rounded=1;whiteSpace=wrap;html=1;" vertex="1" parent="1">
          <mxGeometry x="240" y="130" width="120" height="60" as="geometry" />
        </mxCell>
        <mxCell id="3feMBod0ltPdQuT8gGiK-4" value="Görüntünün binary hale getirilmesi ve ters çevrilmesi" style="rounded=1;whiteSpace=wrap;html=1;" vertex="1" parent="1">
          <mxGeometry x="25" y="130" width="160" height="60" as="geometry" />
        </mxCell>
        <mxCell id="3feMBod0ltPdQuT8gGiK-5" value="&lt;code&gt;MORPH_CLOSE&lt;/code&gt; işleminin uygulanması" style="rounded=1;whiteSpace=wrap;html=1;" vertex="1" parent="1">
          <mxGeometry x="25" y="240" width="150" height="60" as="geometry" />
        </mxCell>
        <mxCell id="3feMBod0ltPdQuT8gGiK-6" value="Contour bulma ve görüntünün üzerine çizdirilmesi" style="rounded=1;whiteSpace=wrap;html=1;" vertex="1" parent="1">
          <mxGeometry x="218.5" y="240" width="141.5" height="60" as="geometry" />
        </mxCell>
        <mxCell id="3feMBod0ltPdQuT8gGiK-7" value="Bağlı bileşenlerin etiketlenmesi" style="rounded=1;whiteSpace=wrap;html=1;" vertex="1" parent="1">
          <mxGeometry x="218.5" y="340" width="145" height="60" as="geometry" />
        </mxCell>
        <mxCell id="3feMBod0ltPdQuT8gGiK-8" value="alan &amp;gt; 1100?" style="rhombus;whiteSpace=wrap;html=1;" vertex="1" parent="1">
          <mxGeometry x="55" y="330" width="100" height="80" as="geometry" />
        </mxCell>
        <mxCell id="3feMBod0ltPdQuT8gGiK-9" value="&lt;code&gt;MORPH_OPEN&lt;/code&gt; işleminin uygulanması" style="rounded=1;whiteSpace=wrap;html=1;" vertex="1" parent="1">
          <mxGeometry x="30" y="440" width="150" height="60" as="geometry" />
        </mxCell>
        <mxCell id="3feMBod0ltPdQuT8gGiK-10" value="&lt;meta charset=&quot;utf-8&quot;&gt;Yeni bağlı bileşenlerin etiketlenmesi" style="rounded=1;whiteSpace=wrap;html=1;" vertex="1" parent="1">
          <mxGeometry x="223.5" y="440" width="140" height="60" as="geometry" />
        </mxCell>
        <mxCell id="3feMBod0ltPdQuT8gGiK-12" value="2 &amp;lt; ratio &amp;lt; 4 ve mean &amp;gt; 80" style="rhombus;whiteSpace=wrap;html=1;" vertex="1" parent="1">
          <mxGeometry x="238.5" y="540" width="110" height="90" as="geometry" />
        </mxCell>
        <mxCell id="3feMBod0ltPdQuT8gGiK-13" value="Çıkarılan bileşenlerin çizdirilmesi" style="rounded=1;whiteSpace=wrap;html=1;" vertex="1" parent="1">
          <mxGeometry x="45" y="555" width="120" height="60" as="geometry" />
        </mxCell>
        <mxCell id="3feMBod0ltPdQuT8gGiK-14" value="" style="endArrow=classic;html=1;rounded=0;exitX=1;exitY=0.5;exitDx=0;exitDy=0;entryX=0;entryY=0.5;entryDx=0;entryDy=0;" edge="1" parent="1" source="3feMBod0ltPdQuT8gGiK-1" target="3feMBod0ltPdQuT8gGiK-2">
          <mxGeometry width="50" height="50" relative="1" as="geometry">
            <mxPoint x="110" y="110" as="sourcePoint" />
            <mxPoint x="160" y="60" as="targetPoint" />
          </mxGeometry>
        </mxCell>
        <mxCell id="3feMBod0ltPdQuT8gGiK-16" value="" style="endArrow=classic;html=1;rounded=0;exitX=0;exitY=0.5;exitDx=0;exitDy=0;entryX=1;entryY=0.5;entryDx=0;entryDy=0;" edge="1" parent="1" source="3feMBod0ltPdQuT8gGiK-3" target="3feMBod0ltPdQuT8gGiK-4">
          <mxGeometry width="50" height="50" relative="1" as="geometry">
            <mxPoint x="330" y="240" as="sourcePoint" />
            <mxPoint x="380" y="190" as="targetPoint" />
          </mxGeometry>
        </mxCell>
        <mxCell id="3feMBod0ltPdQuT8gGiK-18" value="" style="endArrow=classic;html=1;rounded=0;exitX=1;exitY=0.5;exitDx=0;exitDy=0;" edge="1" parent="1" source="3feMBod0ltPdQuT8gGiK-5" target="3feMBod0ltPdQuT8gGiK-6">
          <mxGeometry width="50" height="50" relative="1" as="geometry">
            <mxPoint x="330" y="240" as="sourcePoint" />
            <mxPoint x="380" y="190" as="targetPoint" />
          </mxGeometry>
        </mxCell>
        <mxCell id="3feMBod0ltPdQuT8gGiK-19" value="" style="endArrow=classic;html=1;rounded=0;exitX=0.75;exitY=1;exitDx=0;exitDy=0;" edge="1" parent="1" source="3feMBod0ltPdQuT8gGiK-2">
          <mxGeometry width="50" height="50" relative="1" as="geometry">
            <mxPoint x="330" y="350" as="sourcePoint" />
            <mxPoint x="320" y="140" as="targetPoint" />
          </mxGeometry>
        </mxCell>
        <mxCell id="3feMBod0ltPdQuT8gGiK-20" value="" style="endArrow=classic;html=1;rounded=0;exitX=0.5;exitY=1;exitDx=0;exitDy=0;entryX=0.541;entryY=0.046;entryDx=0;entryDy=0;entryPerimeter=0;" edge="1" parent="1" source="3feMBod0ltPdQuT8gGiK-4" target="3feMBod0ltPdQuT8gGiK-5">
          <mxGeometry width="50" height="50" relative="1" as="geometry">
            <mxPoint x="330" y="350" as="sourcePoint" />
            <mxPoint x="380" y="300" as="targetPoint" />
          </mxGeometry>
        </mxCell>
        <mxCell id="3feMBod0ltPdQuT8gGiK-21" value="" style="endArrow=classic;html=1;rounded=0;exitX=0.5;exitY=1;exitDx=0;exitDy=0;entryX=0.5;entryY=0;entryDx=0;entryDy=0;" edge="1" parent="1" source="3feMBod0ltPdQuT8gGiK-6" target="3feMBod0ltPdQuT8gGiK-7">
          <mxGeometry width="50" height="50" relative="1" as="geometry">
            <mxPoint x="330" y="430" as="sourcePoint" />
            <mxPoint x="380" y="380" as="targetPoint" />
          </mxGeometry>
        </mxCell>
        <mxCell id="3feMBod0ltPdQuT8gGiK-22" value="" style="endArrow=classic;html=1;rounded=0;exitX=0;exitY=0.5;exitDx=0;exitDy=0;entryX=1;entryY=0.5;entryDx=0;entryDy=0;" edge="1" parent="1" source="3feMBod0ltPdQuT8gGiK-7" target="3feMBod0ltPdQuT8gGiK-8">
          <mxGeometry width="50" height="50" relative="1" as="geometry">
            <mxPoint x="330" y="430" as="sourcePoint" />
            <mxPoint x="380" y="380" as="targetPoint" />
          </mxGeometry>
        </mxCell>
        <mxCell id="3feMBod0ltPdQuT8gGiK-23" value="" style="endArrow=classic;html=1;rounded=0;exitX=0.5;exitY=1;exitDx=0;exitDy=0;entryX=0.5;entryY=0;entryDx=0;entryDy=0;" edge="1" parent="1" source="3feMBod0ltPdQuT8gGiK-8" target="3feMBod0ltPdQuT8gGiK-9">
          <mxGeometry width="50" height="50" relative="1" as="geometry">
            <mxPoint x="330" y="660" as="sourcePoint" />
            <mxPoint x="380" y="610" as="targetPoint" />
          </mxGeometry>
        </mxCell>
        <mxCell id="3feMBod0ltPdQuT8gGiK-24" value="" style="endArrow=classic;html=1;rounded=0;exitX=1;exitY=0.5;exitDx=0;exitDy=0;entryX=0;entryY=0.5;entryDx=0;entryDy=0;" edge="1" parent="1" source="3feMBod0ltPdQuT8gGiK-9" target="3feMBod0ltPdQuT8gGiK-10">
          <mxGeometry width="50" height="50" relative="1" as="geometry">
            <mxPoint x="330" y="660" as="sourcePoint" />
            <mxPoint x="380" y="610" as="targetPoint" />
          </mxGeometry>
        </mxCell>
        <mxCell id="3feMBod0ltPdQuT8gGiK-25" value="" style="endArrow=classic;html=1;rounded=0;exitX=0.5;exitY=1;exitDx=0;exitDy=0;entryX=0.5;entryY=0;entryDx=0;entryDy=0;" edge="1" parent="1" source="3feMBod0ltPdQuT8gGiK-10" target="3feMBod0ltPdQuT8gGiK-12">
          <mxGeometry width="50" height="50" relative="1" as="geometry">
            <mxPoint x="330" y="620" as="sourcePoint" />
            <mxPoint x="380" y="570" as="targetPoint" />
          </mxGeometry>
        </mxCell>
        <mxCell id="3feMBod0ltPdQuT8gGiK-26" value="" style="endArrow=classic;html=1;rounded=0;exitX=0;exitY=0.5;exitDx=0;exitDy=0;entryX=1;entryY=0.5;entryDx=0;entryDy=0;" edge="1" parent="1" source="3feMBod0ltPdQuT8gGiK-12" target="3feMBod0ltPdQuT8gGiK-13">
          <mxGeometry width="50" height="50" relative="1" as="geometry">
            <mxPoint x="330" y="620" as="sourcePoint" />
            <mxPoint x="380" y="570" as="targetPoint" />
          </mxGeometry>
        </mxCell>
      </root>
    </mxGraphModel>
  </diagram>
</mxfile>
